# xmcd
#
# Track frame offsets: 
#        225
#        17821
#        31380
#        52775
#        70266
#        84401
#        104727
#        125061
#        140900
#        162343
#        183904
#
# Disc length: 2727 seconds
#
# Revision: 3
# Processed by: cddbd v1.5.2PL0 Copyright (c) Steve Scherf et al.
# Submitted via: ExactAudioCopyFreeDBPlugin 1.0
#
DISCID=9a0aa40b
DTITLE=Mike Farris - Salvation in Lights
DYEAR=2007
DGENRE=Rock
TTITLE0=Sit Down Servant
TTITLE1=Streets of Galilee
TTITLE2=Oh Mary Don't You Weep
TTITLE3=Precious Lord, Take My Hand
TTITLE4=Change is Gonna Come
TTITLE5=Devil Don't Sleep
TTITLE6=Can't No Grave Hold My Body Down
TTITLE7=Selah! Selah!
TTITLE8=Take Me (I'll Take You There)
TTITLE9=The Lonely Road
TTITLE10=I'm Gonna Get There
EXTD=
EXTT0=
EXTT1=
EXTT2=
EXTT3=
EXTT4=
EXTT5=
EXTT6=
EXTT7=
EXTT8=
EXTT9=
EXTT10=
PLAYORDER=
